<svg xmlns="http://www.w3.org/2000/svg" width="1024" height="256" viewBox="0 0 256 64" fill="none" role="img"><defs>
  <linearGradient id="gold" x1="0" y1="0" x2="1" y2="1">
    <stop stop-color="#fff4bd"/><stop offset=".35" stop-color="#f4be3f"/>
    <stop offset=".72" stop-color="#b96a18"/><stop offset="1" stop-color="#71310e"/>
  </linearGradient>
  <linearGradient id="silver" x1="0" y1="0" x2="1" y2="1">
    <stop stop-color="#fff"/><stop offset=".42" stop-color="#b9cce2"/>
    <stop offset=".75" stop-color="#7185a0"/><stop offset="1" stop-color="#30445f"/>
  </linearGradient>
  <linearGradient id="red" x1="0" y1="0" x2="1" y2="1">
    <stop stop-color="#ffc1a6"/><stop offset=".35" stop-color="#ed684c"/>
    <stop offset=".76" stop-color="#a72b27"/><stop offset="1" stop-color="#551b20"/>
  </linearGradient>
  <linearGradient id="blue" x1="0" y1="0" x2="1" y2="1">
    <stop stop-color="#d6f4ff"/><stop offset=".4" stop-color="#48b9e8"/>
    <stop offset=".78" stop-color="#17618f"/><stop offset="1" stop-color="#102d50"/>
  </linearGradient>
  <linearGradient id="green" x1="0" y1="0" x2="1" y2="1">
    <stop stop-color="#c9ffd9"/><stop offset=".4" stop-color="#39c978"/>
    <stop offset=".78" stop-color="#187448"/><stop offset="1" stop-color="#103d37"/>
  </linearGradient>
  <linearGradient id="purple" x1="0" y1="0" x2="1" y2="1">
    <stop stop-color="#f0d4ff"/><stop offset=".4" stop-color="#ae68e8"/>
    <stop offset=".78" stop-color="#6335a2"/><stop offset="1" stop-color="#301c5d"/>
  </linearGradient>
  <linearGradient id="bronze" x1="0" y1="0" x2="1" y2="1">
    <stop stop-color="#ffe1c5"/><stop offset=".42" stop-color="#d28b5e"/>
    <stop offset=".78" stop-color="#824936"/><stop offset="1" stop-color="#462629"/>
  </linearGradient>
  <linearGradient id="darkMetal" x1="0" y1="0" x2="1" y2="1">
    <stop stop-color="#7487a1"/><stop offset=".45" stop-color="#293b55"/>
    <stop offset="1" stop-color="#111a2c"/>
  </linearGradient>
  <radialGradient id="shine" cx=".28" cy=".24" r=".85">
    <stop stop-color="#fff" stop-opacity=".92"/><stop offset=".28" stop-color="#fff" stop-opacity=".38"/>
    <stop offset="1" stop-color="#fff" stop-opacity="0"/>
  </radialGradient>
  <filter id="glow" x="-60%" y="-60%" width="220%" height="220%">
    <feGaussianBlur stdDeviation="3" result="b"/><feMerge><feMergeNode in="b"/><feMergeNode in="SourceGraphic"/></feMerge>
  </filter>
  <filter id="shadow" x="-40%" y="-40%" width="180%" height="190%">
    <feDropShadow dx="0" dy="2" stdDeviation="2" flood-color="#050914" flood-opacity=".65"/>
  </filter></defs><title>explosion</title>
    <g transform="translate(0 0)"><circle cx="32" cy="32" r="16" fill="#ffd445" opacity=".5" filter="url(#glow)"/><path d="m32 9 5 13 12-9-3 15 14 2-13 7 8 12-15-4-3 14-7-13-10 9 2-15-14-4 13-6-7-13 14 4 4-12Z" fill="url(#gold)" stroke="#fff5c8" stroke-width="1.4"/><circle cx="32" cy="32" r="8" fill="#fff"/><circle cx="32" cy="32" r="4" fill="#fff8c8"/></g>
    <g transform="translate(64 0)"><circle cx="32" cy="32" r="24" fill="#ff8d35" opacity=".36" filter="url(#glow)"/><path d="m31 5 7 14 12-7-3 14 13 5-13 7 7 13-15-4-7 13-5-15-14 6 5-15-13-7 15-5-1-15 12 9 10-13Z" fill="#f8a52d" stroke="#fff0a0" stroke-width="1.4"/><path d="m32 15 13 8 2 13-10 12-14-5-5-13 5-12 9-3Z" fill="#fff7d4"/></g>
    <g transform="translate(128 0)"><circle cx="32" cy="32" r="27" fill="#ef512d" opacity=".3" filter="url(#glow)"/><path d="m31 4 8 13 10-8 1 14 14 4-12 9 8 12-15-2-4 14-9-12-12 9 2-15-14-4 12-8-7-13 15 3 3-16Z" fill="#d95630" stroke="#ffd78b" stroke-width="1.4"/><path d="m31 15 13 4 5 11-6 12-13 4-9-9 1-13 9-9Z" fill="#ffd16c"/><circle cx="31" cy="31" r="7" fill="#fff4cd"/></g>
    <g transform="translate(192 0)"><circle cx="32" cy="32" r="28" fill="#b94e37" opacity=".25" filter="url(#glow)"/><path d="M9 32c0-13 10-23 23-23s23 10 23 23-10 23-23 23S9 45 9 32Z" fill="none" stroke="#d77c54" stroke-width="7" stroke-dasharray="3 3"/><path d="M15 32c0-9 8-17 17-17s17 8 17 17-8 17-17 17-17-8-17-17Z" fill="none" stroke="#743c36" stroke-width="4"/><path d="m7 16 4-6m46 42 5 4M13 52l-4 5" stroke="#f59e0b" stroke-width="2"/> </g></svg>
